# xmcd
#
# Track frame offsets: 
#        150
#        15912
#        28584
#        38936
#        51955
#        63709
#        75918
#        89735
#        100881
#        111869
#        122549
#        134900
#        147177
#        160250
#        174277
#        184858
#        196727
#        208667
#        219170
#        230942
#        242307
#        256441
#        269766
#        280152
#        292045
#
# Disc length: 4054 seconds
#
# Revision: 2
# Processed by: cddbd v1.5.2PL0 Copyright (c) Steve Scherf et al.
# Submitted via: ExactAudioCopyFreeDBPlugin 1.0
#
DISCID=730fd419
DTITLE=Various Artist - The Best of Doo Wop [Real Gone Music]
DYEAR=2017
DGENRE=Rhythm and Blues
TTITLE0=The Counts - Darling Dear
TTITLE1=The Jacks - Why Don't You Write Me
TTITLE2=The Nutmegs - Story Untold
TTITLE3=The Marigolds - Rollin' Stone
TTITLE4=The El Dorados - At My Front Door
TTITLE5=The Harptones - Life is But a Dream
TTITLE6=The Moonglwos - Most of All
TTITLE7=The Cadillacs - Down the Road
TTITLE8=The Mellows - Smoke from Your Cigarette
TTITLE9=The Wrens - Come Back My Love
TTITLE10=The Whispers - Are You Sorry
TTITLE11=The Robins - Smeokey Joe's Café
TTITLE12=The Turbans - When You Dance
TTITLE13=The Solitaires - I Don't Stand a Ghost of a Chance
TTITLE14=The Cadillacs - Speedoo
TTITLE15=The Platters - The Great Pretender
TTITLE16=The Platters - Only You
TTITLE17=Frankie Lymon and The Teenagers - Why Do Fools Fall in Love
TTITLE18=The Spiders - Witchcraft
TTITLE19=The Cues - Burn That Candle
TTITLE20=The Chimes - Zindy Lou
TTITLE21=The Cardinals - The Door is Still Open
TTITLE22=The Five Keys - Close Your Eyes
TTITLE23=The Hearts - Lonely Nights
TTITLE24=The Cleftones - You Baby You
EXTD=
EXTT0=
EXTT1=
EXTT2=
EXTT3=
EXTT4=
EXTT5=
EXTT6=
EXTT7=
EXTT8=
EXTT9=
EXTT10=
EXTT11=
EXTT12=
EXTT13=
EXTT14=
EXTT15=
EXTT16=
EXTT17=
EXTT18=
EXTT19=
EXTT20=
EXTT21=
EXTT22=
EXTT23=
EXTT24=
PLAYORDER=
